# xmcd
#
# Track frame offsets: 
#        150
#        18039
#        34482
#        50598
#        65085
#        79723
#        97841
#        116395
#        134593
#        147148
#        167982
#        185349
#        202123
#        221671
#        235826
#        254240
#        273967
#        289161
#        301959
#        320105
#
# Disc length: 4426 seconds
#
# Revision: 0
# Processed by: cddbd v1.5.2PL0 Copyright (c) Steve Scherf et al.
# Submitted via: ExactAudioCopy v1.3
#
DISCID=34114814
DTITLE=Various Artist - Boys From The Bush Men Of Aussie Country Vol 3
DYEAR=1900
DGENRE=Country
TTITLE0=McAlister Kemp -  White Line
TTITLE1=Adam Brand - Cigarettes and Whiskey
TTITLE2=Lee Kernaghan - Cowgirl
TTITLE3=Peter McWhirter - I Will Stand By You
TTITLE4=Troy Cassar-Daley - Big Big Love
TTITLE5=Steve Forde - Hurricane
TTITLE6=Markus Meie - My Patch Of Dirt
TTITLE7=ames Blundel - Higher Than Heaven
TTITLE8=The Wilson Pickers - Shake It Down
TTITLE9=Matt Scullion - Hard Earned Money
TTITLE10=Luke Austen - She’s So You
TTITLE11=Greg Storer - Muddy Road
TTITLE12=Liam Brew - Girls With Girlfriends
TTITLE13=Luke O’Shea - Prodigal Son
TTITLE14=Jason Lee - A Memory
TTITLE15=Travis Collins - Full Tank
TTITLE16=Craig Morrison - Hot Kinda Love
TTITLE17=The Wolverines - Good Times and Good Ol' Boys
TTITLE18=Warren H. Williams - Family
TTITLE19=Luke Dickens  - Underdog
EXTD=
EXTT0=
EXTT1=
EXTT2=
EXTT3=
EXTT4=
EXTT5=
EXTT6=
EXTT7=
EXTT8=
EXTT9=
EXTT10=
EXTT11=
EXTT12=
EXTT13=
EXTT14=
EXTT15=
EXTT16=
EXTT17=
EXTT18=
EXTT19=
PLAYORDER=
